<svg width="66" height="63" viewBox="0 0 66 63" fill="none" xmlns="http://www.w3.org/2000/svg">
<path d="M49.1384 7.00031H23.3606C14.4627 7.00031 7.24951 13.9648 7.24951 22.5559V47.4448C7.24951 56.0358 14.4627 63.0003 23.3606 63.0003H49.1384C58.0363 63.0003 65.2495 56.0358 65.2495 47.4448V22.5559C65.2495 13.9648 58.0363 7.00031 49.1384 7.00031ZM59.6106 47.4448C59.5929 53.0219 54.9147 57.5388 49.1384 57.5559H23.3606C17.5843 57.5388 12.9061 53.0219 12.8884 47.4448V22.5559C12.9061 16.9787 17.5843 12.4618 23.3606 12.4447H49.1384C54.9147 12.4618 59.5929 16.9787 59.6106 22.5559V47.4448ZM54.7773 20.2225C54.7773 21.9407 53.3347 23.3336 51.5551 23.3336C49.7755 23.3336 48.3328 21.9407 48.3328 20.2225C48.3328 18.5043 49.7755 17.1114 51.5551 17.1114C53.3347 17.1114 54.7773 18.5043 54.7773 20.2225ZM36.2495 21.0003C28.2414 21.0003 21.7495 27.2683 21.7495 35.0003C21.7495 42.7323 28.2414 49.0003 36.2495 49.0003C44.2576 49.0003 50.7495 42.7323 50.7495 35.0003C50.7581 31.2847 49.2332 27.719 46.512 25.0917C43.7909 22.4644 40.0978 20.992 36.2495 21.0003ZM36.2495 43.5559C31.3557 43.5559 27.3884 39.7254 27.3884 35.0003C27.3884 30.2752 31.3557 26.4447 36.2495 26.4447C41.1434 26.4447 45.1106 30.2752 45.1106 35.0003C45.1106 39.7254 41.1434 43.5559 36.2495 43.5559Z" fill="white"/>
</svg>
